<svg width="39" height="39" viewBox="0 0 39 39" fill="none" xmlns="http://www.w3.org/2000/svg">
<g filter="url(#filter0_ii_124_6625)">
<circle cx="19.5" cy="19.5" r="19.5" fill="#7D387D"/>
</g>
<circle cx="19.5" cy="19.5" r="19" stroke="#0E79B2"/>
<g filter="url(#filter1_di_124_6625)">
<path d="M9.35697 16.335V11.61C9.35697 10.4433 9.75364 9.53333 10.547 8.88C11.3403 8.22667 12.402 7.9 13.732 7.9C15.0853 7.9 16.1586 8.20333 16.952 8.81C17.7453 9.39333 18.142 10.1633 18.142 11.12V15.46C18.142 15.88 17.8386 16.1717 17.232 16.335C16.9053 16.4283 16.5786 16.475 16.252 16.475C15.9253 16.475 15.5986 16.44 15.272 16.37C15.342 15.81 15.377 15.215 15.377 14.585V11.61C15.377 11.1667 15.2253 10.8283 14.922 10.595C14.6186 10.3383 14.222 10.21 13.732 10.21C13.242 10.21 12.8453 10.3383 12.542 10.595C12.262 10.8283 12.122 11.1667 12.122 11.61V15.705C12.122 16.5217 12.3903 17.0933 12.927 17.42L16.637 19.8C17.687 20.4533 18.212 21.4567 18.212 22.81V27.64C18.212 28.8067 17.8036 29.7167 16.987 30.37C16.1703 31.0233 15.0853 31.35 13.732 31.35C12.402 31.35 11.3286 31.0583 10.512 30.475C9.69531 29.8683 9.28697 29.0867 9.28697 28.13V23.79C9.28697 23.37 9.59031 23.0783 10.197 22.915C10.5236 22.8217 10.8503 22.775 11.177 22.775C11.5036 22.775 11.8303 22.81 12.157 22.88C12.087 23.44 12.052 24.035 12.052 24.665V27.64C12.052 28.06 12.2153 28.3983 12.542 28.655C12.8686 28.9117 13.277 29.04 13.767 29.04C14.257 29.04 14.6536 28.9117 14.957 28.655C15.2836 28.3983 15.447 28.06 15.447 27.64V23.685C15.447 22.775 15.132 22.1217 14.502 21.725L10.792 19.31C9.83531 18.7033 9.35697 17.7117 9.35697 16.335ZM25.4378 10.56C24.8078 10.56 24.1778 10.875 23.5478 11.505V28.69H25.1578C25.6478 28.69 26.0445 28.5733 26.3478 28.34C26.6512 28.0833 26.8028 27.7333 26.8028 27.29V11.89C26.8028 11.0033 26.3478 10.56 25.4378 10.56ZM26.1028 8.25C28.4128 8.25 29.5678 9.39333 29.5678 11.68V27.29C29.5678 28.4567 29.1595 29.3667 28.3428 30.02C27.5495 30.6733 26.4645 31 25.0878 31H20.7828V11.645C20.7828 11.1317 20.6895 10.77 20.5028 10.56C20.3162 10.3267 19.9778 10.21 19.4878 10.21C19.4645 9.60333 19.6278 9.125 19.9778 8.775C20.3278 8.425 20.8878 8.25 21.6578 8.25C22.4512 8.25 22.9995 8.635 23.3028 9.405C24.2128 8.635 25.1462 8.25 26.1028 8.25Z" fill="#C45BAA"/>
<path d="M10.547 8.88L11.1827 9.65193L11.1827 9.65193L10.547 8.88ZM16.952 8.81L16.3445 9.60436L16.352 9.61008L16.3596 9.61565L16.952 8.81ZM17.232 16.335L16.972 15.3694L16.9646 15.3714L16.9573 15.3735L17.232 16.335ZM15.272 16.37L14.2797 16.246L14.166 17.1557L15.0624 17.3478L15.272 16.37ZM14.922 10.595L14.276 11.3584L14.2938 11.3734L14.3123 11.3876L14.922 10.595ZM12.542 10.595L13.1822 11.3632L13.1879 11.3584L12.542 10.595ZM12.927 17.42L13.4669 16.5783L13.457 16.5719L13.4469 16.5658L12.927 17.42ZM16.637 19.8L16.097 20.6418L16.1087 20.6491L16.637 19.8ZM16.987 30.37L17.6117 31.1509L17.6117 31.1509L16.987 30.37ZM10.512 30.475L9.91565 31.2777L9.92314 31.2833L9.93073 31.2887L10.512 30.475ZM10.197 22.915L10.4569 23.8806L10.4643 23.8786L10.4717 23.8765L10.197 22.915ZM12.157 22.88L13.1493 23.004L13.263 22.0943L12.3665 21.9022L12.157 22.88ZM12.542 28.655L13.1598 27.8687L13.1598 27.8687L12.542 28.655ZM14.957 28.655L14.3392 27.8687L14.3249 27.8799L14.311 27.8916L14.957 28.655ZM14.502 21.725L13.9564 22.5631L13.9628 22.5672L13.9692 22.5712L14.502 21.725ZM10.792 19.31L11.3376 18.4719L11.3275 18.4655L10.792 19.31ZM10.357 16.335V11.61H8.35697V16.335H10.357ZM10.357 11.61C10.357 10.6967 10.6529 10.0882 11.1827 9.65193L9.91127 8.10807C8.85435 8.97847 8.35697 10.1899 8.35697 11.61H10.357ZM11.1827 9.65193C11.7499 9.18477 12.5647 8.9 13.732 8.9V6.9C12.2393 6.9 10.9307 7.26857 9.91127 8.10807L11.1827 9.65193ZM13.732 8.9C14.9429 8.9 15.7783 9.17137 16.3445 9.60436L17.5594 8.01564C16.539 7.23529 15.2277 6.9 13.732 6.9V8.9ZM16.3596 9.61565C16.9055 10.0171 17.142 10.4923 17.142 11.12H19.142C19.142 9.8344 18.5851 8.7696 17.5444 8.00435L16.3596 9.61565ZM17.142 11.12V15.46H19.142V11.12H17.142ZM17.142 15.46C17.142 15.4419 17.1459 15.4042 17.1652 15.3588C17.1845 15.3136 17.2088 15.2849 17.2214 15.2729C17.2316 15.2631 17.2246 15.2732 17.1829 15.294C17.141 15.3149 17.0734 15.3421 16.972 15.3694L17.4919 17.3006C17.8839 17.1951 18.2891 17.0208 18.6076 16.7146C18.9549 16.3806 19.142 15.9426 19.142 15.46H17.142ZM16.9573 15.3735C16.7163 15.4423 16.4821 15.475 16.252 15.475V17.475C16.6752 17.475 17.0943 17.4144 17.5067 17.2965L16.9573 15.3735ZM16.252 15.475C15.9973 15.475 15.7409 15.4478 15.4815 15.3922L15.0624 17.3478C15.4564 17.4322 15.8533 17.475 16.252 17.475V15.475ZM16.2643 16.494C16.3399 15.8885 16.377 15.2518 16.377 14.585H14.377C14.377 15.1782 14.344 15.7315 14.2797 16.246L16.2643 16.494ZM16.377 14.585V11.61H14.377V14.585H16.377ZM16.377 11.61C16.377 10.9119 16.1221 10.2565 15.5317 9.80238L14.3123 11.3876C14.3372 11.4068 14.3448 11.4195 14.3507 11.4328C14.3587 11.4507 14.377 11.5022 14.377 11.61H16.377ZM15.5679 9.83161C15.0448 9.38894 14.4014 9.21 13.732 9.21V11.21C14.0426 11.21 14.1925 11.2877 14.276 11.3584L15.5679 9.83161ZM13.732 9.21C13.0626 9.21 12.4192 9.38894 11.896 9.83161L13.1879 11.3584C13.2714 11.2877 13.4214 11.21 13.732 11.21V9.21ZM11.9018 9.82678C11.3447 10.2911 11.122 10.9404 11.122 11.61H13.122C13.122 11.4926 13.1405 11.4314 13.151 11.4061C13.1593 11.3859 13.1672 11.3757 13.1822 11.3632L11.9018 9.82678ZM11.122 11.61V15.705H13.122V11.61H11.122ZM11.122 15.705C11.122 16.7516 11.483 17.7117 12.407 18.2742L13.4469 16.5658C13.2976 16.4749 13.122 16.2917 13.122 15.705H11.122ZM12.387 18.2617L16.097 20.6417L17.1769 18.9583L13.4669 16.5783L12.387 18.2617ZM16.1087 20.6491C16.8337 21.1002 17.212 21.7631 17.212 22.81H19.212C19.212 21.1502 18.5403 19.8065 17.1653 18.9509L16.1087 20.6491ZM17.212 22.81V27.64H19.212V22.81H17.212ZM17.212 27.64C17.212 28.5428 16.9122 29.1492 16.3623 29.5891L17.6117 31.1509C18.695 30.2842 19.212 29.0706 19.212 27.64H17.212ZM16.3623 29.5891C15.7693 30.0635 14.9258 30.35 13.732 30.35V32.35C15.2449 32.35 16.5713 31.9832 17.6117 31.1509L16.3623 29.5891ZM13.732 30.35C12.5433 30.35 11.6928 30.0896 11.0932 29.6613L9.93073 31.2887C10.9645 32.0271 12.2606 32.35 13.732 32.35V30.35ZM11.1083 29.6723C10.5268 29.2403 10.287 28.7476 10.287 28.13H8.28697C8.28697 29.4258 8.86382 30.4964 9.91565 31.2777L11.1083 29.6723ZM10.287 28.13V23.79H8.28697V28.13H10.287ZM10.287 23.79C10.287 23.8081 10.2831 23.8458 10.2638 23.8912C10.2445 23.9364 10.2201 23.9651 10.2076 23.9771C10.1973 23.9869 10.2044 23.9768 10.2461 23.956C10.2879 23.9351 10.3555 23.9079 10.4569 23.8806L9.937 21.9494C9.54506 22.0549 9.13984 22.2292 8.82136 22.5354C8.47405 22.8694 8.28697 23.3074 8.28697 23.79H10.287ZM10.4717 23.8765C10.7126 23.8077 10.9469 23.775 11.177 23.775V21.775C10.7537 21.775 10.3347 21.8356 9.92225 21.9535L10.4717 23.8765ZM11.177 23.775C11.4316 23.775 11.6881 23.8022 11.9474 23.8578L12.3665 21.9022C11.9725 21.8178 11.5757 21.775 11.177 21.775V23.775ZM11.1647 22.756C11.089 23.3615 11.052 23.9982 11.052 24.665H13.052C13.052 24.0718 13.0849 23.5185 13.1493 23.004L11.1647 22.756ZM11.052 24.665V27.64H13.052V24.665H11.052ZM11.052 27.64C11.052 28.3629 11.3531 28.9926 11.9242 29.4413L13.1598 27.8687C13.0775 27.804 13.052 27.7571 13.052 27.64H11.052ZM11.9242 29.4413C12.4573 29.8602 13.0947 30.04 13.767 30.04V28.04C13.4592 28.04 13.28 27.9631 13.1598 27.8687L11.9242 29.4413ZM13.767 30.04C14.4364 30.04 15.0798 29.8611 15.6029 29.4184L14.311 27.8916C14.2275 27.9623 14.0776 28.04 13.767 28.04V30.04ZM15.5748 29.4413C16.1458 28.9926 16.447 28.3629 16.447 27.64H14.447C14.447 27.7571 14.4214 27.804 14.3392 27.8687L15.5748 29.4413ZM16.447 27.64V23.685H14.447V27.64H16.447ZM16.447 23.685C16.447 22.5196 16.0231 21.501 15.0348 20.8788L13.9692 22.5712C14.2409 22.7423 14.447 23.0304 14.447 23.685H16.447ZM15.0475 20.8869L11.3375 18.4719L10.2464 20.1481L13.9564 22.5631L15.0475 20.8869ZM11.3275 18.4655C10.7253 18.0836 10.357 17.4544 10.357 16.335H8.35697C8.35697 17.969 8.9453 19.3231 10.2564 20.1545L11.3275 18.4655ZM23.5478 11.505L22.8407 10.7979L22.5478 11.0908V11.505H23.5478ZM23.5478 28.69H22.5478V29.69H23.5478V28.69ZM26.3478 28.34L26.9575 29.1326L26.976 29.1184L26.9938 29.1034L26.3478 28.34ZM28.3428 30.02L27.7181 29.2391L27.7126 29.2436L27.7071 29.2481L28.3428 30.02ZM20.7828 31H19.7828V32H20.7828V31ZM20.5028 10.56L19.722 11.1847L19.7382 11.205L19.7554 11.2244L20.5028 10.56ZM19.4878 10.21L18.4886 10.2484L18.5256 11.21H19.4878V10.21ZM19.9778 8.775L19.2707 8.06789L19.2707 8.06789L19.9778 8.775ZM23.3028 9.405L22.3724 9.77152L22.8838 11.0695L23.9488 10.1684L23.3028 9.405ZM25.4378 9.56C24.4491 9.56 23.5797 10.0589 22.8407 10.7979L24.2549 12.2121C24.7759 11.6911 25.1666 11.56 25.4378 11.56V9.56ZM22.5478 11.505V28.69H24.5478V11.505H22.5478ZM23.5478 29.69H25.1578V27.69H23.5478V29.69ZM25.1578 29.69C25.8059 29.69 26.4356 29.5341 26.9575 29.1326L25.7381 27.5474C25.6534 27.6126 25.4898 27.69 25.1578 27.69V29.69ZM26.9938 29.1034C27.5493 28.6333 27.8028 27.9892 27.8028 27.29H25.8028C25.8028 27.4775 25.753 27.5334 25.7019 27.5766L26.9938 29.1034ZM27.8028 27.29V11.89H25.8028V27.29H27.8028ZM27.8028 11.89C27.8028 11.2858 27.6462 10.6506 27.1594 10.1763C26.6775 9.70666 26.0406 9.56 25.4378 9.56V11.56C25.7451 11.56 25.7907 11.635 25.7637 11.6087C25.7319 11.5778 25.8028 11.6075 25.8028 11.89H27.8028ZM26.1028 9.25C27.1062 9.25 27.6746 9.49797 27.9981 9.81819C28.3197 10.1365 28.5678 10.6934 28.5678 11.68H30.5678C30.5678 10.3799 30.2385 9.22178 29.4051 8.39681C28.5736 7.57369 27.4094 7.25 26.1028 7.25V9.25ZM28.5678 11.68V27.29H30.5678V11.68H28.5678ZM28.5678 27.29C28.5678 28.1928 28.2681 28.7992 27.7181 29.2391L28.9675 30.8009C30.0509 29.9342 30.5678 28.7206 30.5678 27.29H28.5678ZM27.7071 29.2481C27.1456 29.7105 26.3116 30 25.0878 30V32C26.6174 32 27.9534 31.6361 28.9785 30.7919L27.7071 29.2481ZM25.0878 30H20.7828V32H25.0878V30ZM21.7828 31V11.645H19.7828V31H21.7828ZM21.7828 11.645C21.7828 11.0674 21.6891 10.3894 21.2502 9.89563L19.7554 11.2244C19.7144 11.1782 19.725 11.163 19.7446 11.2386C19.764 11.3138 19.7828 11.4436 19.7828 11.645H21.7828ZM21.2837 9.9353C20.8132 9.34724 20.0898 9.21 19.4878 9.21V11.21C19.6599 11.21 19.7496 11.2313 19.7831 11.2429C19.8091 11.2518 19.7684 11.2428 19.722 11.1847L21.2837 9.9353ZM20.4871 10.1716C20.4719 9.7754 20.5753 9.59176 20.6849 9.4821L19.2707 8.06789C18.6804 8.65824 18.4571 9.43127 18.4886 10.2484L20.4871 10.1716ZM20.6849 9.48211C20.7658 9.40124 21.0096 9.25 21.6578 9.25V7.25C20.7661 7.25 19.8899 7.44875 19.2707 8.06789L20.6849 9.48211ZM21.6578 9.25C21.8876 9.25 22.0128 9.30333 22.0895 9.35716C22.1692 9.41319 22.2756 9.52568 22.3724 9.77152L24.2332 9.03847C24.0268 8.51431 23.7073 8.04931 23.2387 7.72034C22.767 7.38917 22.2214 7.25 21.6578 7.25V9.25ZM23.9488 10.1684C24.7241 9.51237 25.4365 9.25 26.1028 9.25V7.25C24.8558 7.25 23.7016 7.75762 22.6569 8.64161L23.9488 10.1684Z" fill="#0E79B2"/>
</g>
<defs>
<filter id="filter0_ii_124_6625" x="0" y="0" width="39" height="39" filterUnits="userSpaceOnUse" color-interpolation-filters="sRGB">
<feFlood flood-opacity="0" result="BackgroundImageFix"/>
<feBlend mode="normal" in="SourceGraphic" in2="BackgroundImageFix" result="shape"/>
<feColorMatrix in="SourceAlpha" type="matrix" values="0 0 0 0 0 0 0 0 0 0 0 0 0 0 0 0 0 0 127 0" result="hardAlpha"/>
<feOffset dx="2" dy="2"/>
<feComposite in2="hardAlpha" operator="arithmetic" k2="-1" k3="1"/>
<feColorMatrix type="matrix" values="0 0 0 0 0.666667 0 0 0 0 0.666667 0 0 0 0 0.666667 0 0 0 0.25 0"/>
<feBlend mode="normal" in2="shape" result="effect1_innerShadow_124_6625"/>
<feColorMatrix in="SourceAlpha" type="matrix" values="0 0 0 0 0 0 0 0 0 0 0 0 0 0 0 0 0 0 127 0" result="hardAlpha"/>
<feOffset dx="-2" dy="-2"/>
<feComposite in2="hardAlpha" operator="arithmetic" k2="-1" k3="1"/>
<feColorMatrix type="matrix" values="0 0 0 0 0.133333 0 0 0 0 0.133333 0 0 0 0 0.133333 0 0 0 0.25 0"/>
<feBlend mode="normal" in2="effect1_innerShadow_124_6625" result="effect2_innerShadow_124_6625"/>
</filter>
<filter id="filter1_di_124_6625" x="9.28711" y="7.90039" width="24.2803" height="27.4492" filterUnits="userSpaceOnUse" color-interpolation-filters="sRGB">
<feFlood flood-opacity="0" result="BackgroundImageFix"/>
<feColorMatrix in="SourceAlpha" type="matrix" values="0 0 0 0 0 0 0 0 0 0 0 0 0 0 0 0 0 0 127 0" result="hardAlpha"/>
<feOffset dx="2" dy="2"/>
<feGaussianBlur stdDeviation="1"/>
<feComposite in2="hardAlpha" operator="out"/>
<feColorMatrix type="matrix" values="0 0 0 0 0 0 0 0 0 0 0 0 0 0 0 0 0 0 0.25 0"/>
<feBlend mode="normal" in2="BackgroundImageFix" result="effect1_dropShadow_124_6625"/>
<feBlend mode="normal" in="SourceGraphic" in2="effect1_dropShadow_124_6625" result="shape"/>
<feColorMatrix in="SourceAlpha" type="matrix" values="0 0 0 0 0 0 0 0 0 0 0 0 0 0 0 0 0 0 127 0" result="hardAlpha"/>
<feMorphology radius="2" operator="erode" in="SourceAlpha" result="effect2_innerShadow_124_6625"/>
<feOffset dx="2" dy="2"/>
<feGaussianBlur stdDeviation="1"/>
<feComposite in2="hardAlpha" operator="arithmetic" k2="-1" k3="1"/>
<feColorMatrix type="matrix" values="0 0 0 0 1 0 0 0 0 1 0 0 0 0 1 0 0 0 0.25 0"/>
<feBlend mode="normal" in2="shape" result="effect2_innerShadow_124_6625"/>
</filter>
</defs>
</svg>
